# xmcd CD database file
#
# Track frame offsets:
#	150
#	22109
#	45360
#	74684
#	104619
#	130763
#	156173
#	195925
#	217448
#	249508
#	294898
#
# Disc length: 4196 seconds
#
# Revision: 0
# Processed by: cddbd v1.5.1PL2 Copyright (c) Steve Scherf et al.
# Submitted via: CDex 1.51
#
DISCID=a310620b
DTITLE=Andre Villeger - Connection
DYEAR=1990
DGENRE=Jazz
TTITLE0=The Maze
TTITLE1=Eternal Triangle
TTITLE2=Isfahan
TTITLE3=Eronel
TTITLE4=Funkallero
TTITLE5=Manoir de mes Reves
TTITLE6=Beautiful Love
TTITLE7=Bayonne Mosquito Blues
TTITLE8=Arrival
TTITLE9=Duke Ellington's Sound
TTITLE10=Lady Bird
EXTD=YEAR: 1990
EXTT0=
EXTT1=
EXTT2=
EXTT3=
EXTT4=
EXTT5=
EXTT6=
EXTT7=
EXTT8=
EXTT9=
EXTT10=
PLAYORDER=
